# AST/ASF file generated using VICON BodyLanguage
# -----------------------------------------------
:version 1.10
:name VICON
:units
  mass 1.0
  length 0.45
  angle deg
:documentation
   .ast/.asf automatically generated from VICON data using
   VICON BodyBuilder and BodyLanguage model FoxedUp or BRILLIANT.MOD
:root
   order TX TY TZ RX RY RZ
   axis XYZ
   position 0 0 0  
   orientation 0 0 0 
:bonedata
  begin
     id 1 
     name lhipjoint
     direction 0.612567 -0.751349 0.245431 
     length 2.42285 
     axis 0 0 0  XYZ
  end
  begin
     id 2 
     name lfemur
     direction 0.34202 -0.939693 0  
     length 7.11304  
     axis 0 0 20  XYZ
    dof rx ry rz
    limits (-160.0 20.0)
           (-70.0 70.0)
           (-60.0 70.0)
  end
  begin
     id 3 
     name ltibia
     direction 0.34202 -0.939693 0   
     length 7.84529   
     axis 0 0 20   XYZ
    dof rx
    limits (-10.0 170.0)
  end
  begin
     id 4 
     name lfoot
     direction 0.0779239 -0.214094 0.9737   
     length 1.97176   
     axis -90 7.62852e-016 20   XYZ
    dof rx rz
    limits (-45.0 90.0)
           (-70.0 20.0)
  end
  begin
     id 5 
     name ltoes
     direction 1.53565e-011 -4.21709e-011 1   
     length 0.993197   
     axis -90 7.62852e-016 20   XYZ
    dof rx
    limits (-90.0 20.0)
  end
  begin
     id 6 
     name rhipjoint
     direction -0.665722 -0.709315 0.231701   
     length 2.56642  
     axis 0 0 0  XYZ 
  end
  begin
     id 7 
     name rfemur
     direction -0.34202 -0.939693 0   
     length 7.32108   
     axis 0 0 -20   XYZ
    dof rx ry rz
    limits (-160.0 20.0)
           (-70.0 70.0)
           (-70.0 60.0)
  end
  begin
     id 8 
     name rtibia
     direction -0.34202 -0.939693 0   
     length 7.81254   
     axis 0 0 -20   XYZ
    dof rx
    limits (-10.0 170.0)
 end
 begin
     id 9 
     name rfoot
     direction -0.0832806 -0.228812 0.969902   
     length 2.08278  
     axis -90 -7.62852e-016 -20   XYZ
    dof rx rz
    limits (-45.0 90.0)
           (-20.0 70.0)
  end
  begin
     id 10 
     name rtoes
     direction -1.53589e-011 -4.22086e-011 1   
     length 1.04609   
     axis -90 -7.62852e-016 -20   XYZ
    dof rx
    limits (-90.0 20.0)
  end
  begin
     id 11 
     name lowerback
     direction -0.00506013 0.988403 -0.151766   
     length 2.01978   
     axis 0 0 0   XYZ
    dof rx ry rz
    limits (-20.0 45.0)
           (-30.0 30.0)
           (-30.0 30.0)
  end
  begin
     id 12 
     name upperback
     direction -0.00836389 0.99968 0.0238859   
     length 2.01276   
     axis 0 0 0   XYZ
    dof rx ry rz
    limits (-20.0 45.0)
           (-30.0 30.0)
           (-30.0 30.0)
  end
  begin
     id 13 
     name thorax
     direction -0.00684136 0.995386 0.0957043   
     length 2.07303   
     axis 0 0 0   XYZ
    dof rx ry rz
    limits (-20.0 45.0)
           (-30.0 30.0)
           (-30.0 30.0)
  end
  begin
     id 14 
     name lowerneck
     direction -0.0161045 0.999661 0.0204485   
     length 1.91243   
     axis 0 0 0   XYZ
    dof rx ry rz
    limits (-20.0 45.0)
           (-30.0 30.0)
           (-30.0 30.0)
  end
  begin
     id 15 
     name upperneck
     direction 0.0553583 0.990946 -0.122319   
     length 1.91574   
     axis 0 0 0   XYZ
    dof rx ry rz
    limits (-20.0 45.0)
           (-30.0 30.0)
           (-30.0 30.0)
  end
  begin
     id 16
     name head
     direction 0.0180273 0.998839 -0.0446756  
     length 1.92693  
     axis 0 0 0   XYZ
    dof rx ry rz
    limits (-20.0 45.0)
           (-30.0 30.0)
           (-30.0 30.0)
  end
  begin
     id 17 
     name lclavicle
     direction 0.945646 0.319323 -0.0615358  
     length 4.0076  
     axis 0 0 0   XYZ
    dof ry rz
    limits (-20.0 10.0)
           (0.0 20.0)
  end
  begin
     id 18 
     name lhumerus
     direction 1 -4.48967e-011 -2.79996e-027   
     length 5.64147   
     axis 180 -30 -90   XYZ
    dof rx ry rz
    limits (-60.0 90.0)
           (-90.0 90.0)
           (-90.0 90.0)
  end
  begin
     id 19
     name lradius
     direction 1 -4.48976e-011 -9.5122e-027   
     length 2.86444   
     axis 180 -30 -90   XYZ
    dof rx
    limits (-10.0 170.0)
  end
  begin
     id 20
     name lwrist
     direction 1 -4.48983e-011 -1.24047e-026   
     length 1.43222   
     axis 9.05591e-015 90 90   XYZ
    dof ry
    limits (-180.0 0.0)
 end
  begin
     id 21 
     name lhand
     direction 1 -4.4892e-011 -2.48094e-026   
     length 0.722123   
     axis 1.58305e-014 90 90   XYZ
    dof rx rz
    limits (-90.0 90.0)
           (-45.0 45.0)
  end
  begin
     id 22 
     name lfingers
     direction 1 -4.48895e-011 -4.96187e-026   
     length 0.582194   
     axis 3.1661e-014 90 90   XYZ
    dof rx
    limits (0.0 90.0)
  end
  begin
     id 23
     name lthumb
     direction 0.707107 -6.34961e-011 0.707107   
     length 0.835918   
     axis -90 45 2.85299e-015   XYZ
    dof rx rz
    limits (-45.0 45.0)
           (-45.0 45.0)
  end
  begin
     id 24 
     name rclavicle
     direction -0.932635 0.324218 -0.15835   
     length 3.65819  
     axis 0 0 0   XYZ 
    dof ry rz
    limits (-10.0 20.0)
           (-20.0 0.0)
  end
  begin
     id 25 
     name rhumerus
     direction -1 -4.48965e-011 -4.02296e-027  
     length 5.44729   
     axis 180 30 90   XYZ
    dof rx ry rz
    limits (-90.0 60.0)
           (-90.0 90.0)
           (-90.0 90.0)
  end
  begin
     id 26 
     name rradius
     direction -1 -4.48957e-011 -8.81087e-027   
     length 3.08821   
     axis 180 30 90   XYZ
    dof rx
    limits (-10.0 170.0)
  end
  begin
     id 27 
     name rwrist
     direction -1 -4.49015e-011 -1.24047e-026   
     length 1.5441   
     axis 9.05591e-015 -90 -90   XYZ
    dof ry
    limits (-180.0 0.0)
  end
  begin
     id 28
     name rhand
     direction -1 -4.4891e-011 -2.48094e-026   
     length 0.821049   
     axis 1.58305e-014 -90 -90   XYZ
    dof rx rz
    limits (-90.0 90.0)
           (-45.0 45.0)
  end
  begin
     id 29
     name rfingers
     direction -1 -4.48985e-011 -4.96187e-026   
     length 0.661951   
     axis 3.1661e-014 -90 -90   XYZ
    dof rx
    limits (0.0 90.0)
  end
  begin
     id 30
     name rthumb
     direction -0.707107 -6.34906e-011 0.707107   
     length 0.950433   
     axis -90 -45 -2.85299e-015   XYZ
    dof rx rz
    limits (-45.0 45.0)
           (-45.0 45.0)
  end
:hierarchy
  begin
    root lhipjoint rhipjoint lowerback
    lhipjoint lfemur
    lfemur ltibia
    ltibia lfoot
    lfoot ltoes
    rhipjoint rfemur
    rfemur rtibia
    rtibia rfoot
    rfoot rtoes
    lowerback upperback
    upperback thorax
    thorax lowerneck lclavicle rclavicle
    lowerneck upperneck
    upperneck head
    lclavicle lhumerus
    lhumerus lradius
    lradius lwrist
    lwrist lhand lthumb
    lhand lfingers
    rclavicle rhumerus
    rhumerus rradius
    rradius rwrist
    rwrist rhand rthumb
    rhand rfingers
  end

#!OML:ASF F:\VICON\USERDATA\INSTALL\rory3\rory3.ASF
:FULLY-SPECIFIED
:DEGREES
1
root 3.3467 17.7733 0.403712 -33.5384 88.8017 -33.9088
lowerback 1.4996 0.258961 3.17049
upperback 0.610013 0.390296 -0.697659
thorax -0.189099 0.201536 -2.49983
lowerneck -1.87326 -5.31659 -5.62507
upperneck 1.88569 -7.1382 8.52682
head 1.50387 -3.49098 3.61193
rclavicle -2.39784e-015 -1.39149e-015
rhumerus -35.3024 -7.59602 -82.5313
rradius 28.8054
rwrist 14.0982
rhand -3.80941 10.0389
rfingers 7.12502
rthumb 21.937 -18.7373
lclavicle -2.39784e-015 -1.39149e-015
lhumerus -33.4034 -8.64594 87.9673
lradius 28.5208
lwrist 30.2443
lhand -8.76793 9.42108
lfingers 7.12502
lthumb 17.1698 38.6825
rfemur 0.29922 1.38548 19.6158
rtibia 14.3805
rfoot -16.0605 -1.13052
rtoes -5.96325
lfemur 0 0 0
ltibia 0
lfoot 0 0
ltoes 0
2
root 3.34661 17.7744 0.405501 -34.9352 88.7818 -35.3268
lowerback 1.47763 0.250344 3.19049
upperback 0.598266 0.3784 -0.695896
thorax -0.189499 0.195398 -2.50898
lowerneck -1.84929 -5.31172 -5.5828
upperneck 1.86888 -7.13209 8.51059
head 1.49086 -3.48843 3.59918
rclavicle -2.4289e-015 1.98785e-016
rhumerus -35.3271 -7.45791 -82.6231
rradius 28.8756
rwrist 13.958
rhand -3.79628 9.92916
rfingers 7.12502
rthumb 21.9496 -18.8456
lclavicle -2.4289e-015 1.98785e-016
lhumerus -33.4114 -8.60311 87.9268
lradius 28.547
lwrist 30.2127
lhand -8.72358 9.46422
lfingers 7.12502
lthumb 17.2125 38.7219
rfemur 0.310593 1.47269 19.6709
rtibia 14.3045
rfoot -16.0268 -1.2291
rtoes -5.99366
lfemur 0 0 0
ltibia 0
lfoot 0 0
ltoes 0
3
root 3.34599 17.7747 0.406769 -36.2007 88.7573 -36.604
lowerback 1.4821 0.260847 3.21167
upperback 0.587814 0.392949 -0.68477
thorax -0.201675 0.20231 -2.50974
lowerneck -1.80713 -5.32724 -5.60032
upperneck 1.83708 -7.1526 8.52339
head 1.47595 -3.49994 3.60761
rclavicle 5.12492e-016 5.96354e-015
rhumerus -35.3067 -7.44605 -82.6333
rradius 28.8679
rwrist 13.9
rhand -3.81457 9.946
rfingers 7.12502
rthumb 21.932 -18.8308
lclavicle 5.12492e-016 5.96354e-015
lhumerus -33.4049 -8.61236 87.9488
lradius 28.5566
lwrist 30.2441
lhand -8.83492 9.47861
lfingers 7.12502
lthumb 17.1053 38.7456
rfemur 0.289628 1.53009 19.7198
rtibia 14.2928
rfoot -16.0308 -1.27855
rtoes -6.31688
lfemur 0 0 0
ltibia 0
lfoot 0 0
ltoes 0
4
root 3.34656 17.7749 0.40655 -35.9338 88.7505 -36.3475
lowerback 1.46289 0.263095 3.2138
upperback 0.587084 0.395336 -0.677192
thorax -0.191538 0.20365 -2.50306
lowerneck -1.80046 -5.32419 -5.63858
upperneck 1.8256 -7.14741 8.52348
head 1.47234 -3.4981 3.61537
rclavicle -9.93923e-017 3.47873e-015
rhumerus -35.2815 -7.40758 -82.6274
rradius 28.8488
rwrist 13.8115
rhand -3.79609 9.99662
rfingers 7.12502
rthumb 21.9498 -18.7781
lclavicle -9.93923e-017 3.47873e-015
lhumerus -33.3846 -8.59449 87.9698
lradius 28.5221
lwrist 30.2124
lhand -8.82324 9.45936
lfingers 7.12502
lthumb 17.1166 38.7254
rfemur 0.281008 1.53548 19.7135
rtibia 14.2841
rfoot -16.0239 -1.24614
rtoes -6.10815
lfemur 0 0 0
ltibia 0
lfoot 0 0
ltoes 0
5
root 3.34633 17.7741 0.40645 -34.3462 88.7663 -34.7673
lowerback 1.45009 0.267714 3.17712
upperback 0.580564 0.400536 -0.69578
thorax -0.190832 0.206125 -2.50157
lowerneck -1.821 -5.31793 -5.59292
upperneck 1.87193 -7.1411 8.49321
head 1.48707 -3.49394 3.59547
rclavicle -3.45078e-015 3.8763e-015
rhumerus -35.2674 -7.50686 -82.5859
rradius 28.7852
rwrist 13.9159
rhand -3.95512 10.1723
rfingers 7.12502
rthumb 21.7971 -18.6202
lclavicle -3.45078e-015 3.8763e-015
lhumerus -33.4172 -8.64443 87.9823
lradius 28.5826
lwrist 30.2754
lhand -8.83577 9.49434
lfingers 7.12502
lthumb 17.1045 38.7614
rfemur 0.263548 1.53017 19.6745
rtibia 14.2871
rfoot -15.9937 -1.27033
rtoes -6.0385
lfemur 0 0 0
ltibia 0
lfoot 0 0
ltoes 0
6
root 3.34656 17.775 0.407056 -33.1058 88.7939 -33.5444
lowerback 1.42906 0.264103 3.1235
upperback 0.576409 0.394301 -0.699981
thorax -0.184089 0.202981 -2.47554
lowerneck -1.82623 -5.31672 -5.59706
upperneck 1.88179 -7.13949 8.47869
head 1.49057 -3.49323 3.59105
rclavicle -4.0813e-015 2.98177e-016
rhumerus -35.2414 -7.541 -82.5597
rradius 28.762
rwrist 14.0058
rhand -4.02223 10.2496
rfingers 7.12502
rthumb 21.7326 -18.5505
lclavicle -4.0813e-015 2.98177e-016
lhumerus -33.3734 -8.54514 87.9502
lradius 28.5191
lwrist 30.1516
lhand -8.77118 9.4578
lfingers 7.12502
lthumb 17.1667 38.7195
rfemur 0.252751 1.47642 19.633
rtibia 14.2852
rfoot -15.9905 -1.24163
rtoes -6.19257
lfemur 0 0 0
ltibia 0
lfoot 0 0
ltoes 0
7
root 3.34688 17.7759 0.408892 -35.2491 88.7304 -35.7027
lowerback 1.42693 0.268786 3.18643
upperback 0.55897 0.401452 -0.686956
thorax -0.199935 0.206065 -2.49768
lowerneck -1.7714 -5.30754 -5.56251
upperneck 1.84801 -7.12748 8.45749
head 1.46615 -3.48878 3.57921
rclavicle 7.05686e-015 1.09332e-015
rhumerus -35.2284 -7.59807 -82.5626
rradius 28.7478
rwrist 14.0482
rhand -3.93615 10.2906
rfingers 7.12502
rthumb 21.8153 -18.4998
lclavicle 7.05686e-015 1.09332e-015
lhumerus -33.3413 -8.44882 87.8892
lradius 28.4469
lwrist 30.0976
lhand -8.72916 9.413
lfingers 7.12502
lthumb 17.2071 38.6711
rfemur 0.243781 1.52448 19.7311
rtibia 14.2791
rfoot -16.018 -1.29709
rtoes -6.37473
lfemur 0 0 0
ltibia 0
lfoot 0 0
ltoes 0
8
root 3.34758 17.777 0.410675 -36.0812 88.6943 -36.547
lowerback 1.4326 0.276906 3.20357
upperback 0.552065 0.412788 -0.675157
thorax -0.209396 0.211469 -2.49542
lowerneck -1.81425 -5.30719 -5.54335
upperneck 1.87909 -7.12696 8.42615
head 1.48151 -3.48756 3.56332
rclavicle -5.2181e-015 8.94531e-016
rhumerus -35.2057 -7.66612 -82.5406
rradius 28.7574
rwrist 14.1386
rhand -4.10504 10.453
rfingers 7.12502
rthumb 21.6531 -18.3562
lclavicle -5.2181e-015 8.94531e-016
lhumerus -33.3352 -8.49069 87.8954
lradius 28.4747
lwrist 30.1674
lhand -8.75156 9.44764
lfingers 7.12502
lthumb 17.1856 38.7077
rfemur 0.250465 1.58114 19.7846
rtibia 14.2511
rfoot -16.0445 -1.32405
rtoes -6.37616
lfemur 0 0 0
ltibia 0
lfoot 0 0
ltoes 0
9
root 3.34801 17.776 0.412505 -36.4999 88.7073 -36.9552
lowerback 1.44318 0.273658 3.18502
upperback 0.554975 0.40856 -0.67303
thorax -0.212781 0.209327 -2.4828
lowerneck -1.86596 -5.3062 -5.53061
upperneck 1.93889 -7.1267 8.39289
head 1.50806 -3.48605 3.54756
rclavicle 1.69588e-015 -2.18663e-015
rhumerus -35.1876 -7.60012 -82.5685
rradius 28.8004
rwrist 14.1051
rhand -4.27713 10.4906
rfingers 7.12502
rthumb 21.4878 -18.3376
lclavicle 1.69588e-015 -2.18663e-015
lhumerus -33.3384 -8.52131 87.8959
lradius 28.4959
lwrist 30.2046
lhand -8.70718 9.44709
lfingers 7.12502
lthumb 17.2283 38.7034
rfemur 0.295842 1.62337 19.8002
rtibia 14.2066
rfoot -16.0276 -1.36849
rtoes -6.13496
lfemur 0 0 0
ltibia 0
lfoot 0 0
ltoes 0
10
root 3.34922 17.7739 0.413362 -36.7395 88.7121 -37.1845
lowerback 1.41482 0.271466 3.1999
upperback 0.566168 0.404738 -0.689049
thorax -0.185431 0.208087 -2.50735
lowerneck -1.8603 -5.29338 -5.54624
upperneck 1.93535 -7.11011 8.43921
head 1.50761 -3.4773 3.56739
rclavicle 8.19987e-016 -3.37934e-015
rhumerus -35.165 -7.61373 -82.6029
rradius 28.7946
rwrist 14.0679
rhand -4.24377 10.5484
rfingers 7.12502
rthumb 21.5199 -18.2761
lclavicle 8.19987e-016 -3.37934e-015
lhumerus -33.3467 -8.56569 87.8845
lradius 28.5511
lwrist 30.2431
lhand -8.7117 9.46027
lfingers 7.12502
lthumb 17.2239 38.7169
rfemur 0.333746 1.61819 19.7997
rtibia 14.1657
rfoot -16.0263 -1.33856
rtoes -5.98346
lfemur 0 0 0
ltibia 0
lfoot 0 0
ltoes 0
11
root 3.3497 17.7732 0.412472 -38.2356 88.6933 -38.6537
lowerback 1.41995 0.279375 3.27761
upperback 0.589354 0.416334 -0.691892
thorax -0.163121 0.214767 -2.55407
lowerneck -1.88941 -5.29808 -5.55516
upperneck 1.92235 -7.1146 8.44502
head 1.50964 -3.47907 3.57028
rclavicle -8.75895e-016 9.14409e-015
rhumerus -35.1236 -7.62254 -82.6117
rradius 28.7938
rwrist 13.9916
rhand -4.18724 10.5451
rfingers 7.12502
rthumb 21.5741 -18.2732
lclavicle -8.75895e-016 9.14409e-015
lhumerus -33.3191 -8.56545 87.8791
lradius 28.5916
lwrist 30.2098
lhand -8.67197 9.57237
lfingers 7.12502
lthumb 17.2622 38.8257
rfemur 0.393934 1.60055 19.8329
rtibia 14.1131
rfoot -16.0032 -1.33255
rtoes -5.97445
lfemur 0 0 0
ltibia 0
lfoot 0 0
ltoes 0
12
root 3.35055 17.7737 0.412378 -39.2075 88.6635 -39.6389
lowerback 1.40449 0.282974 3.30659
upperback 0.585857 0.421057 -0.666664
thorax -0.15769 0.217171 -2.54439
lowerneck -1.88276 -5.29695 -5.56674
upperneck 1.88766 -7.11059 8.41543
head 1.49587 -3.47829 3.56274
rclavicle 4.01297e-015 -9.93923e-016
rhumerus -35.1212 -7.64299 -82.5738
rradius 28.7915
rwrist 14.0195
rhand -4.29626 10.4952
rfingers 7.12502
rthumb 21.4694 -18.335
lclavicle 4.01297e-015 -9.93923e-016
lhumerus -33.3077 -8.46085 87.8648
lradius 28.6145
lwrist 30.1366
lhand -8.58825 9.57066
lfingers 7.12502
lthumb 17.3428 38.8169
rfemur 0.410995 1.55189 19.8748
rtibia 14.0593
rfoot -15.9259 -1.36965
rtoes -6.47421
lfemur 0 0 0
ltibia 0
lfoot 0 0
ltoes 0
13
root 3.35072 17.7757 0.413052 -40.6956 88.6454 -41.1299
lowerback 1.39478 0.274015 3.32771
upperback 0.586341 0.409054 -0.659303
thorax -0.152471 0.211286 -2.54846
lowerneck -1.90302 -5.28606 -5.50661
upperneck 1.92245 -7.09764 8.37969
head 1.50536 -3.4709 3.53857
rclavicle 2.09345e-015 1.88845e-015
rhumerus -35.1205 -7.58449 -82.6322
rradius 28.828
rwrist 13.9285
rhand -4.5057 10.5065
rfingers 7.12502
rthumb 21.2683 -18.3466
lclavicle 2.09345e-015 1.88845e-015
lhumerus -33.3083 -8.53739 87.8801
lradius 28.6614
lwrist 30.2737
lhand -8.58341 9.6244
lfingers 7.12502
lthumb 17.3474 38.8702
rfemur 0.435802 1.57672 19.9285
rtibia 14.0053
rfoot -15.9271 -1.43433
rtoes -7.1218
lfemur 0 0 0
ltibia 0
lfoot 0 0
ltoes 0
